<svg xmlns="http://www.w3.org/2000/svg" xmlns:xlink="http://www.w3.org/1999/xlink" x="0" y="0" width="702" height="302" style="
        width:702px;
        height:302px;
        background: transparent;
        fill: none;
">
        
        
        <svg xmlns="http://www.w3.org/2000/svg" class="role-diagram-draw-area" style="overflow: visible;"><g class="shapes-region" style="stroke: black; fill: none;"><g class="arrow-line"><path class="connection real" stroke-dasharray="" d="  M75.91,107.19 L259.31,107.19" style="stroke: rgb(0, 0, 0); stroke-width: 1; fill: none; fill-opacity: 1;"/></g><g class="arrow-line"><path class="connection real" stroke-dasharray="" d="  M75.91,97.72 L152.71,97.72" style="stroke: rgb(0, 0, 0); stroke-width: 1; fill: none; fill-opacity: 1;"/></g><g class="arrow-line"><path class="connection real" stroke-dasharray="" d="  M182.89,97.72 L259.31,98.4" style="stroke: rgb(0, 0, 0); stroke-width: 1; fill: none; fill-opacity: 1;"/></g><g class="arrow-line"><path class="connection real" stroke-dasharray="" d="  M259.31,170.77 L182.89,170.77" style="stroke: rgb(0, 0, 0); stroke-width: 1; fill: none; fill-opacity: 1;"/></g><g class="arrow-line"><path class="connection real" stroke-dasharray="" d="  M152.33,170.77 L75.91,170.77" style="stroke: rgb(0, 0, 0); stroke-width: 1; fill: none; fill-opacity: 1;"/></g><g class="arrow-line"><path class="connection real" stroke-dasharray="" d="  M152.33,170.77 L152.33,206.85" style="stroke: rgb(0, 0, 0); stroke-width: 1; fill: none; fill-opacity: 1;"/></g><g class="arrow-line"><path class="connection real" stroke-dasharray="" d="  M182.89,170.77 L182.89,206.85" style="stroke: rgb(0, 0, 0); stroke-width: 1; fill: none; fill-opacity: 1;"/></g><g class="arrow-line"><path class="connection real" stroke-dasharray="" d="  M182.89,61.64 L182.89,97.72" style="stroke: rgb(0, 0, 0); stroke-width: 1; fill: none; fill-opacity: 1;"/></g><g class="arrow-line"><path class="connection real" stroke-dasharray="" d="  M152.71,61.64 L152.71,97.72" style="stroke: rgb(0, 0, 0); stroke-width: 1; fill: none; fill-opacity: 1;"/></g><g class="composite-shape"><path class="real" d=" M76.29,107.19 L158.44,107.19 L158.44,161.08 L76.29,161.08 Z" style="stroke-width: 1; stroke: rgb(207, 39, 39); stroke-opacity: 1; fill: rgb(149, 29, 29); fill-opacity: 0.38;"/></g><g class="composite-shape"><path class="real" d=" M158.44,107.19 L259.31,107.19 L259.31,161.08 L158.44,161.08 Z" style="stroke-width: 1; stroke: rgb(18, 70, 132); stroke-opacity: 1; fill: rgb(115, 136, 162); fill-opacity: 0.43;"/></g><g class="arrow-line"><path class="connection real" stroke-dasharray="" d="  M259.31,107.19 L75.91,107.19" style="stroke: rgb(0, 0, 0); stroke-width: 1; fill: none; fill-opacity: 1;"/></g><g class="arrow-line"><path class="connection real" stroke-dasharray="" d="  M259.31,161.08 L75.91,161.08" style="stroke: rgb(0, 0, 0); stroke-width: 1; fill: none; fill-opacity: 1;"/></g><g class="arrow-line"><path class="connection real" stroke-dasharray="" d="  M286.6,111.64 L319.82,111.64" style="stroke: rgb(0, 0, 0); stroke-width: 1; fill: none; fill-opacity: 1;"/></g><g class="arrow-line"><path class="connection real" stroke-dasharray="" d="  M332.87,111.64 L365.93,112.07" style="stroke: rgb(0, 0, 0); stroke-width: 1; fill: none; fill-opacity: 1;"/></g><g class="arrow-line"><path class="connection real" stroke-dasharray="" d="  M365.93,157.8 L332.87,157.8" style="stroke: rgb(0, 0, 0); stroke-width: 1; fill: none; fill-opacity: 1;"/></g><g class="arrow-line"><path class="connection real" stroke-dasharray="" d="  M319.65,157.8 L286.6,157.8" style="stroke: rgb(0, 0, 0); stroke-width: 1; fill: none; fill-opacity: 1;"/></g><g class="arrow-line"><path class="connection real" stroke-dasharray="" d="  M319.65,157.8 L319.65,180.6" style="stroke: rgb(0, 0, 0); stroke-width: 1; fill: none; fill-opacity: 1;"/></g><g class="arrow-line"><path class="connection real" stroke-dasharray="" d="  M332.87,157.8 L332.87,180.6" style="stroke: rgb(0, 0, 0); stroke-width: 1; fill: none; fill-opacity: 1;"/></g><g class="arrow-line"><path class="connection real" stroke-dasharray="" d="  M332.87,88.84 L332.87,111.64" style="stroke: rgb(0, 0, 0); stroke-width: 1; fill: none; fill-opacity: 1;"/></g><g class="arrow-line"><path class="connection real" stroke-dasharray="" d="  M319.82,88.84 L319.82,111.64" style="stroke: rgb(0, 0, 0); stroke-width: 1; fill: none; fill-opacity: 1;"/></g><g class="arrow-line"><path class="connection real" stroke-dasharray="" d="  M365.93,117.62 L286.6,117.62" style="stroke: rgb(0, 0, 0); stroke-width: 1; fill: none; fill-opacity: 1;"/></g><g class="arrow-line"><path class="connection real" stroke-dasharray="" d="  M365.93,151.68 L286.6,151.68" style="stroke: rgb(0, 0, 0); stroke-width: 1; fill: none; fill-opacity: 1;"/></g><g class="arrow-line"><path class="connection real" stroke-dasharray="" d="  M387.67,112.04 L420.89,112.04" style="stroke: rgb(0, 0, 0); stroke-width: 1; fill: none; fill-opacity: 1;"/></g><g class="arrow-line"><path class="connection real" stroke-dasharray="" d="  M433.95,112.04 L467,112.47" style="stroke: rgb(0, 0, 0); stroke-width: 1; fill: none; fill-opacity: 1;"/></g><g class="arrow-line"><path class="connection real" stroke-dasharray="" d="  M467,158.2 L433.95,158.2" style="stroke: rgb(0, 0, 0); stroke-width: 1; fill: none; fill-opacity: 1;"/></g><g class="arrow-line"><path class="connection real" stroke-dasharray="" d="  M420.73,158.2 L387.67,158.2" style="stroke: rgb(0, 0, 0); stroke-width: 1; fill: none; fill-opacity: 1;"/></g><g class="arrow-line"><path class="connection real" stroke-dasharray="" d="  M420.73,158.2 L420.73,181" style="stroke: rgb(0, 0, 0); stroke-width: 1; fill: none; fill-opacity: 1;"/></g><g class="arrow-line"><path class="connection real" stroke-dasharray="" d="  M433.95,158.2 L433.95,181" style="stroke: rgb(0, 0, 0); stroke-width: 1; fill: none; fill-opacity: 1;"/></g><g class="arrow-line"><path class="connection real" stroke-dasharray="" d="  M433.95,89.24 L433.95,112.04" style="stroke: rgb(0, 0, 0); stroke-width: 1; fill: none; fill-opacity: 1;"/></g><g class="arrow-line"><path class="connection real" stroke-dasharray="" d="  M420.89,89.24 L420.89,112.04" style="stroke: rgb(0, 0, 0); stroke-width: 1; fill: none; fill-opacity: 1;"/></g><g class="arrow-line"><path class="connection real" stroke-dasharray="" d="  M467,118.02 L387.67,118.02" style="stroke: rgb(0, 0, 0); stroke-width: 1; fill: none; fill-opacity: 1;"/></g><g class="arrow-line"><path class="connection real" stroke-dasharray="" d="  M467,152.08 L387.67,152.08" style="stroke: rgb(0, 0, 0); stroke-width: 1; fill: none; fill-opacity: 1;"/></g><g class="composite-shape"><path class="real" d=" M286.6,117.62 L365.93,117.62 L365.93,151.68 L286.6,151.68 Z" style="stroke-width: 1; stroke: rgb(207, 39, 39); stroke-opacity: 1; fill: rgb(149, 29, 29); fill-opacity: 0.38;"/></g><g class="composite-shape"><path class="real" d=" M387.67,118.02 L467,118.02 L467,152.08 L387.67,152.08 Z" style="stroke-width: 1; stroke: rgb(18, 70, 132); stroke-opacity: 1; fill: rgb(115, 136, 162); fill-opacity: 0.43;"/></g><g class="arrow-line"><path class="connection real" stroke-dasharray="" d="  M467,152.08 L387.67,152.08" style="stroke: rgb(0, 0, 0); stroke-width: 1; fill: none; fill-opacity: 1;"/></g><g class="arrow-line"><path class="connection real" stroke-dasharray="" d="  M467,118.02 L387.67,118.02" style="stroke: rgb(0, 0, 0); stroke-width: 1; fill: none; fill-opacity: 1;"/></g><g class="arrow-line"><path class="connection real" stroke-dasharray="" d="  M365.93,117.62 L286.6,117.62" style="stroke: rgb(0, 0, 0); stroke-width: 1; fill: none; fill-opacity: 1;"/></g><g class="arrow-line"><path class="connection real" stroke-dasharray="" d="  M365.93,151.68 L286.6,151.68" style="stroke: rgb(0, 0, 0); stroke-width: 1; fill: none; fill-opacity: 1;"/></g><g class="arrow-line"><path class="connection real" stroke-dasharray="" d="  M332.71,80.72 L369.68,80.72" style="stroke: rgb(0, 0, 0); stroke-width: 1; fill: none; fill-opacity: 1;"/></g><g class="arrow-line"><path class="connection real" stroke-dasharray="" d="  M384.21,80.72 L421,81.34" style="stroke: rgb(0, 0, 0); stroke-width: 1; fill: none; fill-opacity: 1;"/></g><g class="arrow-line"><path class="connection real" stroke-dasharray="" d="  M384.09,60.09 L384.21,80.72" style="stroke: rgb(0, 0, 0); stroke-width: 1; fill: none; fill-opacity: 1;"/></g><g class="arrow-line"><path class="connection real" stroke-dasharray="" d="  M369.73,60.09 L369.68,80.72" style="stroke: rgb(0, 0, 0); stroke-width: 1; fill: none; fill-opacity: 1;"/></g><g class="arrow-line"><path class="connection real" stroke-dasharray="" d="  M421,89.4 L332.71,89.4" style="stroke: rgb(0, 0, 0); stroke-width: 1; fill: none; fill-opacity: 1;"/></g><g class="arrow-line"><path class="connection real" stroke-dasharray="" d="  M420.98,189.05 L384.01,189.11" style="stroke: rgb(0, 0, 0); stroke-width: 1; fill: none; fill-opacity: 1;"/></g><g class="arrow-line"><path class="connection real" stroke-dasharray="" d="  M369.48,189.14 L332.69,188.58" style="stroke: rgb(0, 0, 0); stroke-width: 1; fill: none; fill-opacity: 1;"/></g><g class="arrow-line"><path class="connection real" stroke-dasharray="" d="  M369.36,209.91 L369.48,189.14" style="stroke: rgb(0, 0, 0); stroke-width: 1; fill: none; fill-opacity: 1;"/></g><g class="arrow-line"><path class="connection real" stroke-dasharray="" d="  M383.73,210.27 L384.01,189.11" style="stroke: rgb(0, 0, 0); stroke-width: 1; fill: none; fill-opacity: 1;"/></g><g class="arrow-line"><path class="connection real" stroke-dasharray="" d="  M332.67,180.52 L420.96,180.37" style="stroke: rgb(0, 0, 0); stroke-width: 1; fill: none; fill-opacity: 1;"/></g><g class="arrow-line"><path class="connection real" stroke-dasharray="" d="  M319.91,80.64 L319.82,88.84" style="stroke: rgb(0, 0, 0); stroke-width: 1; fill: none; fill-opacity: 1;"/></g><g class="arrow-line"><path class="connection real" stroke-dasharray="" d="  M319.91,80.64 L332.71,80.72" style="stroke: rgb(0, 0, 0); stroke-width: 1; fill: none; fill-opacity: 1;"/></g><g class="arrow-line"><path class="connection real" stroke-dasharray="" d="  M433.99,81.18 L434.09,89.39" style="stroke: rgb(0, 0, 0); stroke-width: 1; fill: none; fill-opacity: 1;"/></g><g class="arrow-line"><path class="connection real" stroke-dasharray="" d="  M433.99,81.18 L419.91,81.26" style="stroke: rgb(0, 0, 0); stroke-width: 1; fill: none; fill-opacity: 1;"/></g><g class="arrow-line"><path class="connection real" stroke-dasharray="" d="  M319.91,188.64 L319.82,177.39" style="stroke: rgb(0, 0, 0); stroke-width: 1; fill: none; fill-opacity: 1;"/></g><g class="arrow-line"><path class="connection real" stroke-dasharray="" d="  M319.91,188.64 L332.71,188.52" style="stroke: rgb(0, 0, 0); stroke-width: 1; fill: none; fill-opacity: 1;"/></g><g class="arrow-line"><path class="connection real" stroke-dasharray="" d="  M433.97,189.18 L434.09,176.12" style="stroke: rgb(0, 0, 0); stroke-width: 1; fill: none; fill-opacity: 1;"/></g><g class="arrow-line"><path class="connection real" stroke-dasharray="" d="  M433.97,189.18 L417.44,189.05" style="stroke: rgb(0, 0, 0); stroke-width: 1; fill: none; fill-opacity: 1;"/></g><g/></g><g/><g/><g/></svg>
        <svg xmlns="http://www.w3.org/2000/svg" xmlns:xlink="http://www.w3.org/1999/xlink" width="700" height="300" style="width:700px;height:300px;font-family:Asana-Math, Asana;background:transparent;"><g><g><g><g transform="matrix(1,0,0,1,87.734375,139.401875)"><path transform="matrix(0.024480000000000002,0,0,-0.024480000000000002,0,0)" d="M224 -15C292 -15 346 9 397 55L386 67C310 3 129 -2 132 131C135 235 247 265 341 235C345 238 340 218 346 277C278 259 193 267 196 348C198 409 249 457 309 457C365 457 400 417 385 358L400 358L446 434C347 501 147 489 133 352C128 300 166 274 211 262L211 254C128 247 56 205 55 113C53 12 138 -15 224 -15Z" stroke="rgb(225,21,21)" stroke-opacity="1" stroke-width="0" fill="rgb(225,21,21)" fill-opacity="1"></path></g></g><g><g><g><g><g transform="matrix(1,0,0,1,100.546875,143.714125)"><path transform="matrix(0.017136,0,0,-0.017136,0,0)" d="M418 -3L418 27L366 30C311 33 301 44 301 96L301 700L60 598L67 548L217 614L217 96C217 44 206 33 152 30L96 27L96 -3C250 0 250 0 261 0C292 0 402 -3 418 -3Z" stroke="rgb(225,21,21)" stroke-opacity="1" stroke-width="0" fill="rgb(225,21,21)" fill-opacity="1"></path></g></g></g></g></g></g></g><g><g><g><g transform="matrix(1,0,0,1,231.203125,136.855)"><path transform="matrix(0.024480000000000002,0,0,-0.024480000000000002,0,0)" d="M224 -15C292 -15 346 9 397 55L386 67C310 3 129 -2 132 131C135 235 247 265 341 235C345 238 340 218 346 277C278 259 193 267 196 348C198 409 249 457 309 457C365 457 400 417 385 358L400 358L446 434C347 501 147 489 133 352C128 300 166 274 211 262L211 254C128 247 56 205 55 113C53 12 138 -15 224 -15Z" stroke="rgb(12,107,169)" stroke-opacity="1" stroke-width="0" fill="rgb(12,107,169)" fill-opacity="1"></path></g></g><g><g><g><g><g transform="matrix(1,0,0,1,244.015625,141.16725)"><path transform="matrix(0.017136,0,0,-0.017136,0,0)" d="M16 23L16 -3C203 -3 203 0 239 0C275 0 275 -3 468 -3L468 82C353 77 307 81 122 77L304 270C401 373 431 428 431 503C431 618 353 689 226 689C154 689 105 669 56 619L39 483L68 483L81 529C97 587 133 612 200 612C286 612 341 558 341 473C341 398 299 324 186 204Z" stroke="rgb(12,107,169)" stroke-opacity="1" stroke-width="0" fill="rgb(12,107,169)" fill-opacity="1"></path></g></g></g></g></g></g></g><g><g><g><g transform="matrix(1,0,0,1,290.390625,140.315625)"><path transform="matrix(0.015300000000000001,0,0,-0.015300000000000001,0,0)" d="M45 284C45 90 152 -18 343 -18C439 -18 510 5 600 67C600 67 610 103 610 103C610 103 600 110 600 110C506 53 454 35 376 35C219 35 133 131 133 309C133 447 190 653 418 653C489 653 541 639 597 603L597 519L624 519C629 576 637 619 651 665C575 694 518 706 456 706C276 706 45 578 45 284Z" stroke="rgb(225,21,21)" stroke-opacity="1" stroke-width="0" fill="rgb(225,21,21)" fill-opacity="1"></path></g></g><g><g><g><g><g transform="matrix(1,0,0,1,301.359375,143.0225)"><path transform="matrix(0.01071,0,0,-0.01071,0,0)" d="M418 -3L418 27L366 30C311 33 301 44 301 96L301 700L60 598L67 548L217 614L217 96C217 44 206 33 152 30L96 27L96 -3C250 0 250 0 261 0C292 0 402 -3 418 -3Z" stroke="rgb(225,21,21)" stroke-opacity="1" stroke-width="0" fill="rgb(225,21,21)" fill-opacity="1"></path></g></g></g></g></g></g></g><g><g><g><g transform="matrix(1,0,0,1,390.265625,141.1125)"><path transform="matrix(0.015300000000000001,0,0,-0.015300000000000001,0,0)" d="M45 284C45 90 152 -18 343 -18C439 -18 510 5 600 67C600 67 610 103 610 103C610 103 600 110 600 110C506 53 454 35 376 35C219 35 133 131 133 309C133 447 190 653 418 653C489 653 541 639 597 603L597 519L624 519C629 576 637 619 651 665C575 694 518 706 456 706C276 706 45 578 45 284Z" stroke="rgb(12,107,169)" stroke-opacity="1" stroke-width="0" fill="rgb(12,107,169)" fill-opacity="1"></path></g></g><g><g><g><g><g transform="matrix(1,0,0,1,401.234375,143.819375)"><path transform="matrix(0.01071,0,0,-0.01071,0,0)" d="M16 23L16 -3C203 -3 203 0 239 0C275 0 275 -3 468 -3L468 82C353 77 307 81 122 77L304 270C401 373 431 428 431 503C431 618 353 689 226 689C154 689 105 669 56 619L39 483L68 483L81 529C97 587 133 612 200 612C286 612 341 558 341 473C341 398 299 324 186 204Z" stroke="rgb(12,107,169)" stroke-opacity="1" stroke-width="0" fill="rgb(12,107,169)" fill-opacity="1"></path></g></g></g></g></g></g></g><g><g><g><g transform="matrix(1,0,0,1,267.28125,140)"><path transform="matrix(0.017,0,0,-0.017,0,0)" d="M604 347L604 406L65 406L65 347ZM604 134L604 193L65 193L65 134Z" stroke="rgb(0,0,0)" stroke-opacity="1" stroke-width="0" fill="rgb(0,0,0)" fill-opacity="1"></path></g></g></g></g></svg>
</svg>
