ISO-10303-21;
HEADER;
FILE_DESCRIPTION(('FreeCAD Model'),'2;1');
FILE_NAME('Open CASCADE Shape Model','2026-06-07T00:19:48',('Author'),(
    ''),'Open CASCADE STEP processor 7.8','FreeCAD','Unknown');
FILE_SCHEMA(('AUTOMOTIVE_DESIGN { 1 0 10303 214 1 1 1 1 }'));
ENDSEC;
DATA;
#1 = APPLICATION_PROTOCOL_DEFINITION('international standard',
  'automotive_design',2000,#2);
#2 = APPLICATION_CONTEXT(
  'core data for automotive mechanical design processes');
#3 = SHAPE_DEFINITION_REPRESENTATION(#4,#10);
#4 = PRODUCT_DEFINITION_SHAPE('','',#5);
#5 = PRODUCT_DEFINITION('design','',#6,#9);
#6 = PRODUCT_DEFINITION_FORMATION('','',#7);
#7 = PRODUCT('Pocket001','Pocket001','',(#8));
#8 = PRODUCT_CONTEXT('',#2,'mechanical');
#9 = PRODUCT_DEFINITION_CONTEXT('part definition',#2,'design');
#10 = ADVANCED_BREP_SHAPE_REPRESENTATION('',(#11,#15),#800);
#11 = AXIS2_PLACEMENT_3D('',#12,#13,#14);
#12 = CARTESIAN_POINT('',(0.,0.,0.));
#13 = DIRECTION('',(0.,0.,1.));
#14 = DIRECTION('',(1.,0.,-0.));
#15 = MANIFOLD_SOLID_BREP('',#16);
#16 = CLOSED_SHELL('',(#17,#57,#88,#119,#292,#465,#477,#499,#516,#533,
    #550,#567,#584,#601,#618,#635,#652,#669,#686,#703,#720,#732,#754,
    #771,#788));
#17 = ADVANCED_FACE('',(#18),#52,.F.);
#18 = FACE_BOUND('',#19,.F.);
#19 = EDGE_LOOP('',(#20,#30,#38,#46));
#20 = ORIENTED_EDGE('',*,*,#21,.T.);
#21 = EDGE_CURVE('',#22,#24,#26,.T.);
#22 = VERTEX_POINT('',#23);
#23 = CARTESIAN_POINT('',(0.,0.,0.));
#24 = VERTEX_POINT('',#25);
#25 = CARTESIAN_POINT('',(0.,0.,0.5));
#26 = LINE('',#27,#28);
#27 = CARTESIAN_POINT('',(0.,0.,0.));
#28 = VECTOR('',#29,1.);
#29 = DIRECTION('',(0.,0.,1.));
#30 = ORIENTED_EDGE('',*,*,#31,.T.);
#31 = EDGE_CURVE('',#24,#32,#34,.T.);
#32 = VERTEX_POINT('',#33);
#33 = CARTESIAN_POINT('',(4.,0.,0.5));
#34 = LINE('',#35,#36);
#35 = CARTESIAN_POINT('',(0.,0.,0.5));
#36 = VECTOR('',#37,1.);
#37 = DIRECTION('',(1.,0.,0.));
#38 = ORIENTED_EDGE('',*,*,#39,.F.);
#39 = EDGE_CURVE('',#40,#32,#42,.T.);
#40 = VERTEX_POINT('',#41);
#41 = CARTESIAN_POINT('',(4.,0.,0.));
#42 = LINE('',#43,#44);
#43 = CARTESIAN_POINT('',(4.,0.,0.));
#44 = VECTOR('',#45,1.);
#45 = DIRECTION('',(0.,0.,1.));
#46 = ORIENTED_EDGE('',*,*,#47,.F.);
#47 = EDGE_CURVE('',#22,#40,#48,.T.);
#48 = LINE('',#49,#50);
#49 = CARTESIAN_POINT('',(0.,0.,0.));
#50 = VECTOR('',#51,1.);
#51 = DIRECTION('',(1.,0.,0.));
#52 = PLANE('',#53);
#53 = AXIS2_PLACEMENT_3D('',#54,#55,#56);
#54 = CARTESIAN_POINT('',(0.,0.,0.));
#55 = DIRECTION('',(0.,1.,0.));
#56 = DIRECTION('',(1.,0.,0.));
#57 = ADVANCED_FACE('',(#58),#83,.F.);
#58 = FACE_BOUND('',#59,.F.);
#59 = EDGE_LOOP('',(#60,#70,#76,#77));
#60 = ORIENTED_EDGE('',*,*,#61,.T.);
#61 = EDGE_CURVE('',#62,#64,#66,.T.);
#62 = VERTEX_POINT('',#63);
#63 = CARTESIAN_POINT('',(0.,5.,0.));
#64 = VERTEX_POINT('',#65);
#65 = CARTESIAN_POINT('',(0.,5.,0.5));
#66 = LINE('',#67,#68);
#67 = CARTESIAN_POINT('',(0.,5.,0.));
#68 = VECTOR('',#69,1.);
#69 = DIRECTION('',(0.,0.,1.));
#70 = ORIENTED_EDGE('',*,*,#71,.T.);
#71 = EDGE_CURVE('',#64,#24,#72,.T.);
#72 = LINE('',#73,#74);
#73 = CARTESIAN_POINT('',(0.,5.,0.5));
#74 = VECTOR('',#75,1.);
#75 = DIRECTION('',(0.,-1.,0.));
#76 = ORIENTED_EDGE('',*,*,#21,.F.);
#77 = ORIENTED_EDGE('',*,*,#78,.F.);
#78 = EDGE_CURVE('',#62,#22,#79,.T.);
#79 = LINE('',#80,#81);
#80 = CARTESIAN_POINT('',(0.,5.,0.));
#81 = VECTOR('',#82,1.);
#82 = DIRECTION('',(0.,-1.,0.));
#83 = PLANE('',#84);
#84 = AXIS2_PLACEMENT_3D('',#85,#86,#87);
#85 = CARTESIAN_POINT('',(0.,5.,0.));
#86 = DIRECTION('',(1.,0.,0.));
#87 = DIRECTION('',(0.,-1.,0.));
#88 = ADVANCED_FACE('',(#89),#114,.F.);
#89 = FACE_BOUND('',#90,.F.);
#90 = EDGE_LOOP('',(#91,#92,#100,#108));
#91 = ORIENTED_EDGE('',*,*,#39,.T.);
#92 = ORIENTED_EDGE('',*,*,#93,.T.);
#93 = EDGE_CURVE('',#32,#94,#96,.T.);
#94 = VERTEX_POINT('',#95);
#95 = CARTESIAN_POINT('',(4.,5.,0.5));
#96 = LINE('',#97,#98);
#97 = CARTESIAN_POINT('',(4.,0.,0.5));
#98 = VECTOR('',#99,1.);
#99 = DIRECTION('',(0.,1.,0.));
#100 = ORIENTED_EDGE('',*,*,#101,.F.);
#101 = EDGE_CURVE('',#102,#94,#104,.T.);
#102 = VERTEX_POINT('',#103);
#103 = CARTESIAN_POINT('',(4.,5.,0.));
#104 = LINE('',#105,#106);
#105 = CARTESIAN_POINT('',(4.,5.,0.));
#106 = VECTOR('',#107,1.);
#107 = DIRECTION('',(0.,0.,1.));
#108 = ORIENTED_EDGE('',*,*,#109,.F.);
#109 = EDGE_CURVE('',#40,#102,#110,.T.);
#110 = LINE('',#111,#112);
#111 = CARTESIAN_POINT('',(4.,0.,0.));
#112 = VECTOR('',#113,1.);
#113 = DIRECTION('',(0.,1.,0.));
#114 = PLANE('',#115);
#115 = AXIS2_PLACEMENT_3D('',#116,#117,#118);
#116 = CARTESIAN_POINT('',(4.,0.,0.));
#117 = DIRECTION('',(-1.,0.,0.));
#118 = DIRECTION('',(0.,1.,0.));
#119 = ADVANCED_FACE('',(#120,#131,#253),#287,.F.);
#120 = FACE_BOUND('',#121,.F.);
#121 = EDGE_LOOP('',(#122,#123,#124,#130));
#122 = ORIENTED_EDGE('',*,*,#47,.T.);
#123 = ORIENTED_EDGE('',*,*,#109,.T.);
#124 = ORIENTED_EDGE('',*,*,#125,.T.);
#125 = EDGE_CURVE('',#102,#62,#126,.T.);
#126 = LINE('',#127,#128);
#127 = CARTESIAN_POINT('',(4.,5.,0.));
#128 = VECTOR('',#129,1.);
#129 = DIRECTION('',(-1.,0.,0.));
#130 = ORIENTED_EDGE('',*,*,#78,.T.);
#131 = FACE_BOUND('',#132,.F.);
#132 = EDGE_LOOP('',(#133,#143,#151,#159,#167,#175,#183,#191,#199,#207,
    #215,#223,#231,#239,#247));
#133 = ORIENTED_EDGE('',*,*,#134,.T.);
#134 = EDGE_CURVE('',#135,#137,#139,.T.);
#135 = VERTEX_POINT('',#136);
#136 = CARTESIAN_POINT('',(1.194921063,2.1197755,0.));
#137 = VERTEX_POINT('',#138);
#138 = CARTESIAN_POINT('',(1.194921063,0.433796600098,0.));
#139 = LINE('',#140,#141);
#140 = CARTESIAN_POINT('',(1.194921063,1.466898300049,0.));
#141 = VECTOR('',#142,1.);
#142 = DIRECTION('',(0.,-1.,0.));
#143 = ORIENTED_EDGE('',*,*,#144,.T.);
#144 = EDGE_CURVE('',#137,#145,#147,.T.);
#145 = VERTEX_POINT('',#146);
#146 = CARTESIAN_POINT('',(0.994921063,0.433796600098,0.));
#147 = LINE('',#148,#149);
#148 = CARTESIAN_POINT('',(1.4974605315,0.433796600098,0.));
#149 = VECTOR('',#150,1.);
#150 = DIRECTION('',(-1.,0.,0.));
#151 = ORIENTED_EDGE('',*,*,#152,.T.);
#152 = EDGE_CURVE('',#145,#153,#155,.T.);
#153 = VERTEX_POINT('',#154);
#154 = CARTESIAN_POINT('',(0.994921063,4.083796600098,0.));
#155 = LINE('',#156,#157);
#156 = CARTESIAN_POINT('',(0.994921063,3.291898300049,0.));
#157 = VECTOR('',#158,1.);
#158 = DIRECTION('',(0.,1.,0.));
#159 = ORIENTED_EDGE('',*,*,#160,.T.);
#160 = EDGE_CURVE('',#153,#161,#163,.T.);
#161 = VERTEX_POINT('',#162);
#162 = CARTESIAN_POINT('',(1.194921063,4.083796600098,0.));
#163 = LINE('',#164,#165);
#164 = CARTESIAN_POINT('',(1.5974605315,4.083796600098,0.));
#165 = VECTOR('',#166,1.);
#166 = DIRECTION('',(1.,0.,0.));
#167 = ORIENTED_EDGE('',*,*,#168,.T.);
#168 = EDGE_CURVE('',#161,#169,#171,.T.);
#169 = VERTEX_POINT('',#170);
#170 = CARTESIAN_POINT('',(1.194921063,2.3197755,0.));
#171 = LINE('',#172,#173);
#172 = CARTESIAN_POINT('',(1.194921063,1.466898300049,0.));
#173 = VECTOR('',#174,1.);
#174 = DIRECTION('',(0.,-1.,0.));
#175 = ORIENTED_EDGE('',*,*,#176,.T.);
#176 = EDGE_CURVE('',#169,#177,#179,.T.);
#177 = VERTEX_POINT('',#178);
#178 = CARTESIAN_POINT('',(1.296733278753,2.3197755,0.));
#179 = LINE('',#180,#181);
#180 = CARTESIAN_POINT('',(1.6941711,2.3197755,0.));
#181 = VECTOR('',#182,1.);
#182 = DIRECTION('',(1.,0.,-0.));
#183 = ORIENTED_EDGE('',*,*,#184,.T.);
#184 = EDGE_CURVE('',#177,#185,#187,.T.);
#185 = VERTEX_POINT('',#186);
#186 = CARTESIAN_POINT('',(2.96462445,3.98766676,0.));
#187 = LINE('',#188,#189);
#188 = CARTESIAN_POINT('',(2.351551660333,3.374593937709,0.));
#189 = VECTOR('',#190,1.);
#190 = DIRECTION('',(0.707106762373,0.7071068,0.));
#191 = ORIENTED_EDGE('',*,*,#192,.T.);
#192 = EDGE_CURVE('',#185,#193,#195,.T.);
#193 = VERTEX_POINT('',#194);
#194 = CARTESIAN_POINT('',(3.10604545,3.846245047526,0.));
#195 = LINE('',#196,#197);
#196 = CARTESIAN_POINT('',(3.166096742429,3.78619345256,0.));
#197 = VECTOR('',#198,1.);
#198 = DIRECTION('',(0.707104999998,-0.707108562371,0.));
#199 = ORIENTED_EDGE('',*,*,#200,.T.);
#200 = EDGE_CURVE('',#193,#201,#203,.T.);
#201 = VERTEX_POINT('',#202);
#202 = CARTESIAN_POINT('',(1.480123448584,2.220323701416,0.));
#203 = LINE('',#204,#205);
#204 = CARTESIAN_POINT('',(1.609089214174,2.349289415028,0.));
#205 = VECTOR('',#206,1.);
#206 = DIRECTION('',(-0.707106923681,-0.707106638692,0.));
#207 = ORIENTED_EDGE('',*,*,#208,.T.);
#208 = EDGE_CURVE('',#201,#209,#211,.T.);
#209 = VERTEX_POINT('',#210);
#210 = CARTESIAN_POINT('',(3.1068774,0.59356975,0.));
#211 = LINE('',#212,#213);
#212 = CARTESIAN_POINT('',(2.3535504875,1.3468966625,0.));
#213 = VECTOR('',#214,1.);
#214 = DIRECTION('',(0.707106781187,-0.707106781187,0.));
#215 = ORIENTED_EDGE('',*,*,#216,.T.);
#216 = EDGE_CURVE('',#209,#217,#219,.T.);
#217 = VERTEX_POINT('',#218);
#218 = CARTESIAN_POINT('',(2.9654564,0.45214875,0.));
#219 = LINE('',#220,#221);
#220 = CARTESIAN_POINT('',(3.2360551125,0.7227474625,0.));
#221 = VECTOR('',#222,1.);
#222 = DIRECTION('',(-0.707106781187,-0.707106781186,0.));
#223 = ORIENTED_EDGE('',*,*,#224,.T.);
#224 = EDGE_CURVE('',#217,#225,#227,.T.);
#225 = VERTEX_POINT('',#226);
#226 = CARTESIAN_POINT('',(1.338702092265,2.078902402094,0.));
#227 = LINE('',#228,#229);
#228 = CARTESIAN_POINT('',(1.32824573562,2.089358754525,0.));
#229 = VECTOR('',#230,1.);
#230 = DIRECTION('',(-0.707106923681,0.707106638692,0.));
#231 = ORIENTED_EDGE('',*,*,#232,.T.);
#232 = EDGE_CURVE('',#225,#233,#235,.T.);
#233 = VERTEX_POINT('',#234);
#234 = CARTESIAN_POINT('',(1.33827845,2.07847876,0.));
#235 = LINE('',#236,#237);
#236 = CARTESIAN_POINT('',(1.609089214174,2.349289415028,0.));
#237 = VECTOR('',#238,1.);
#238 = DIRECTION('',(-0.707106923681,-0.707106638692,0.));
#239 = ORIENTED_EDGE('',*,*,#240,.T.);
#240 = EDGE_CURVE('',#233,#241,#243,.T.);
#241 = VERTEX_POINT('',#242);
#242 = CARTESIAN_POINT('',(1.296981737469,2.1197755,0.));
#243 = LINE('',#244,#245);
#244 = CARTESIAN_POINT('',(1.327617964496,2.089139252595,0.));
#245 = VECTOR('',#246,1.);
#246 = DIRECTION('',(-0.707106546018,0.707107016355,0.));
#247 = ORIENTED_EDGE('',*,*,#248,.T.);
#248 = EDGE_CURVE('',#241,#135,#249,.T.);
#249 = LINE('',#250,#251);
#250 = CARTESIAN_POINT('',(1.5941711,2.1197755,0.));
#251 = VECTOR('',#252,1.);
#252 = DIRECTION('',(-1.,0.,0.));
#253 = FACE_BOUND('',#254,.F.);
#254 = EDGE_LOOP('',(#255,#265,#273,#281));
#255 = ORIENTED_EDGE('',*,*,#256,.T.);
#256 = EDGE_CURVE('',#257,#259,#261,.T.);
#257 = VERTEX_POINT('',#258);
#258 = CARTESIAN_POINT('',(3.0909478,4.621321,0.));
#259 = VERTEX_POINT('',#260);
#260 = CARTESIAN_POINT('',(3.0909478,4.421321,0.));
#261 = LINE('',#262,#263);
#262 = CARTESIAN_POINT('',(3.0909478,3.4606605,0.));
#263 = VECTOR('',#264,1.);
#264 = DIRECTION('',(0.,-1.,0.));
#265 = ORIENTED_EDGE('',*,*,#266,.T.);
#266 = EDGE_CURVE('',#259,#267,#269,.T.);
#267 = VERTEX_POINT('',#268);
#268 = CARTESIAN_POINT('',(0.9909478,4.421321,0.));
#269 = LINE('',#270,#271);
#270 = CARTESIAN_POINT('',(1.4954739,4.421321,0.));
#271 = VECTOR('',#272,1.);
#272 = DIRECTION('',(-1.,0.,0.));
#273 = ORIENTED_EDGE('',*,*,#274,.T.);
#274 = EDGE_CURVE('',#267,#275,#277,.T.);
#275 = VERTEX_POINT('',#276);
#276 = CARTESIAN_POINT('',(0.9909478,4.621321,0.));
#277 = LINE('',#278,#279);
#278 = CARTESIAN_POINT('',(0.9909478,3.5606605,0.));
#279 = VECTOR('',#280,1.);
#280 = DIRECTION('',(0.,1.,0.));
#281 = ORIENTED_EDGE('',*,*,#282,.T.);
#282 = EDGE_CURVE('',#275,#257,#283,.T.);
#283 = LINE('',#284,#285);
#284 = CARTESIAN_POINT('',(2.5454739,4.621321,0.));
#285 = VECTOR('',#286,1.);
#286 = DIRECTION('',(1.,0.,0.));
#287 = PLANE('',#288);
#288 = AXIS2_PLACEMENT_3D('',#289,#290,#291);
#289 = CARTESIAN_POINT('',(2.,2.5,0.));
#290 = DIRECTION('',(0.,0.,1.));
#291 = DIRECTION('',(1.,0.,0.));
#292 = ADVANCED_FACE('',(#293,#304,#426),#460,.T.);
#293 = FACE_BOUND('',#294,.T.);
#294 = EDGE_LOOP('',(#295,#296,#297,#303));
#295 = ORIENTED_EDGE('',*,*,#31,.T.);
#296 = ORIENTED_EDGE('',*,*,#93,.T.);
#297 = ORIENTED_EDGE('',*,*,#298,.T.);
#298 = EDGE_CURVE('',#94,#64,#299,.T.);
#299 = LINE('',#300,#301);
#300 = CARTESIAN_POINT('',(4.,5.,0.5));
#301 = VECTOR('',#302,1.);
#302 = DIRECTION('',(-1.,0.,0.));
#303 = ORIENTED_EDGE('',*,*,#71,.T.);
#304 = FACE_BOUND('',#305,.T.);
#305 = EDGE_LOOP('',(#306,#316,#324,#332,#340,#348,#356,#364,#372,#380,
    #388,#396,#404,#412,#420));
#306 = ORIENTED_EDGE('',*,*,#307,.T.);
#307 = EDGE_CURVE('',#308,#310,#312,.T.);
#308 = VERTEX_POINT('',#309);
#309 = CARTESIAN_POINT('',(1.194921063,2.1197755,0.5));
#310 = VERTEX_POINT('',#311);
#311 = CARTESIAN_POINT('',(1.194921063,0.433796600098,0.5));
#312 = LINE('',#313,#314);
#313 = CARTESIAN_POINT('',(1.194921063,1.466898300049,0.5));
#314 = VECTOR('',#315,1.);
#315 = DIRECTION('',(0.,-1.,0.));
#316 = ORIENTED_EDGE('',*,*,#317,.T.);
#317 = EDGE_CURVE('',#310,#318,#320,.T.);
#318 = VERTEX_POINT('',#319);
#319 = CARTESIAN_POINT('',(0.994921063,0.433796600098,0.5));
#320 = LINE('',#321,#322);
#321 = CARTESIAN_POINT('',(1.4974605315,0.433796600098,0.5));
#322 = VECTOR('',#323,1.);
#323 = DIRECTION('',(-1.,0.,0.));
#324 = ORIENTED_EDGE('',*,*,#325,.T.);
#325 = EDGE_CURVE('',#318,#326,#328,.T.);
#326 = VERTEX_POINT('',#327);
#327 = CARTESIAN_POINT('',(0.994921063,4.083796600098,0.5));
#328 = LINE('',#329,#330);
#329 = CARTESIAN_POINT('',(0.994921063,3.291898300049,0.5));
#330 = VECTOR('',#331,1.);
#331 = DIRECTION('',(0.,1.,0.));
#332 = ORIENTED_EDGE('',*,*,#333,.T.);
#333 = EDGE_CURVE('',#326,#334,#336,.T.);
#334 = VERTEX_POINT('',#335);
#335 = CARTESIAN_POINT('',(1.194921063,4.083796600098,0.5));
#336 = LINE('',#337,#338);
#337 = CARTESIAN_POINT('',(1.5974605315,4.083796600098,0.5));
#338 = VECTOR('',#339,1.);
#339 = DIRECTION('',(1.,0.,0.));
#340 = ORIENTED_EDGE('',*,*,#341,.T.);
#341 = EDGE_CURVE('',#334,#342,#344,.T.);
#342 = VERTEX_POINT('',#343);
#343 = CARTESIAN_POINT('',(1.194921063,2.3197755,0.5));
#344 = LINE('',#345,#346);
#345 = CARTESIAN_POINT('',(1.194921063,1.466898300049,0.5));
#346 = VECTOR('',#347,1.);
#347 = DIRECTION('',(0.,-1.,0.));
#348 = ORIENTED_EDGE('',*,*,#349,.T.);
#349 = EDGE_CURVE('',#342,#350,#352,.T.);
#350 = VERTEX_POINT('',#351);
#351 = CARTESIAN_POINT('',(1.296733278753,2.3197755,0.5));
#352 = LINE('',#353,#354);
#353 = CARTESIAN_POINT('',(1.6941711,2.3197755,0.5));
#354 = VECTOR('',#355,1.);
#355 = DIRECTION('',(1.,0.,-0.));
#356 = ORIENTED_EDGE('',*,*,#357,.T.);
#357 = EDGE_CURVE('',#350,#358,#360,.T.);
#358 = VERTEX_POINT('',#359);
#359 = CARTESIAN_POINT('',(2.96462445,3.98766676,0.5));
#360 = LINE('',#361,#362);
#361 = CARTESIAN_POINT('',(2.351551660333,3.374593937709,0.5));
#362 = VECTOR('',#363,1.);
#363 = DIRECTION('',(0.707106762373,0.7071068,0.));
#364 = ORIENTED_EDGE('',*,*,#365,.T.);
#365 = EDGE_CURVE('',#358,#366,#368,.T.);
#366 = VERTEX_POINT('',#367);
#367 = CARTESIAN_POINT('',(3.10604545,3.846245047526,0.5));
#368 = LINE('',#369,#370);
#369 = CARTESIAN_POINT('',(3.166096742429,3.78619345256,0.5));
#370 = VECTOR('',#371,1.);
#371 = DIRECTION('',(0.707104999998,-0.707108562371,0.));
#372 = ORIENTED_EDGE('',*,*,#373,.T.);
#373 = EDGE_CURVE('',#366,#374,#376,.T.);
#374 = VERTEX_POINT('',#375);
#375 = CARTESIAN_POINT('',(1.480123448584,2.220323701416,0.5));
#376 = LINE('',#377,#378);
#377 = CARTESIAN_POINT('',(1.609089214174,2.349289415028,0.5));
#378 = VECTOR('',#379,1.);
#379 = DIRECTION('',(-0.707106923681,-0.707106638692,0.));
#380 = ORIENTED_EDGE('',*,*,#381,.T.);
#381 = EDGE_CURVE('',#374,#382,#384,.T.);
#382 = VERTEX_POINT('',#383);
#383 = CARTESIAN_POINT('',(3.1068774,0.59356975,0.5));
#384 = LINE('',#385,#386);
#385 = CARTESIAN_POINT('',(2.3535504875,1.3468966625,0.5));
#386 = VECTOR('',#387,1.);
#387 = DIRECTION('',(0.707106781187,-0.707106781187,0.));
#388 = ORIENTED_EDGE('',*,*,#389,.T.);
#389 = EDGE_CURVE('',#382,#390,#392,.T.);
#390 = VERTEX_POINT('',#391);
#391 = CARTESIAN_POINT('',(2.9654564,0.45214875,0.5));
#392 = LINE('',#393,#394);
#393 = CARTESIAN_POINT('',(3.2360551125,0.7227474625,0.5));
#394 = VECTOR('',#395,1.);
#395 = DIRECTION('',(-0.707106781187,-0.707106781186,0.));
#396 = ORIENTED_EDGE('',*,*,#397,.T.);
#397 = EDGE_CURVE('',#390,#398,#400,.T.);
#398 = VERTEX_POINT('',#399);
#399 = CARTESIAN_POINT('',(1.338702092265,2.078902402094,0.5));
#400 = LINE('',#401,#402);
#401 = CARTESIAN_POINT('',(1.32824573562,2.089358754525,0.5));
#402 = VECTOR('',#403,1.);
#403 = DIRECTION('',(-0.707106923681,0.707106638692,0.));
#404 = ORIENTED_EDGE('',*,*,#405,.T.);
#405 = EDGE_CURVE('',#398,#406,#408,.T.);
#406 = VERTEX_POINT('',#407);
#407 = CARTESIAN_POINT('',(1.33827845,2.07847876,0.5));
#408 = LINE('',#409,#410);
#409 = CARTESIAN_POINT('',(1.609089214174,2.349289415028,0.5));
#410 = VECTOR('',#411,1.);
#411 = DIRECTION('',(-0.707106923681,-0.707106638692,0.));
#412 = ORIENTED_EDGE('',*,*,#413,.T.);
#413 = EDGE_CURVE('',#406,#414,#416,.T.);
#414 = VERTEX_POINT('',#415);
#415 = CARTESIAN_POINT('',(1.296981737469,2.1197755,0.5));
#416 = LINE('',#417,#418);
#417 = CARTESIAN_POINT('',(1.327617964496,2.089139252595,0.5));
#418 = VECTOR('',#419,1.);
#419 = DIRECTION('',(-0.707106546018,0.707107016355,0.));
#420 = ORIENTED_EDGE('',*,*,#421,.T.);
#421 = EDGE_CURVE('',#414,#308,#422,.T.);
#422 = LINE('',#423,#424);
#423 = CARTESIAN_POINT('',(1.5941711,2.1197755,0.5));
#424 = VECTOR('',#425,1.);
#425 = DIRECTION('',(-1.,0.,0.));
#426 = FACE_BOUND('',#427,.T.);
#427 = EDGE_LOOP('',(#428,#438,#446,#454));
#428 = ORIENTED_EDGE('',*,*,#429,.T.);
#429 = EDGE_CURVE('',#430,#432,#434,.T.);
#430 = VERTEX_POINT('',#431);
#431 = CARTESIAN_POINT('',(3.0909478,4.621321,0.5));
#432 = VERTEX_POINT('',#433);
#433 = CARTESIAN_POINT('',(3.0909478,4.421321,0.5));
#434 = LINE('',#435,#436);
#435 = CARTESIAN_POINT('',(3.0909478,3.4606605,0.5));
#436 = VECTOR('',#437,1.);
#437 = DIRECTION('',(0.,-1.,0.));
#438 = ORIENTED_EDGE('',*,*,#439,.T.);
#439 = EDGE_CURVE('',#432,#440,#442,.T.);
#440 = VERTEX_POINT('',#441);
#441 = CARTESIAN_POINT('',(0.9909478,4.421321,0.5));
#442 = LINE('',#443,#444);
#443 = CARTESIAN_POINT('',(1.4954739,4.421321,0.5));
#444 = VECTOR('',#445,1.);
#445 = DIRECTION('',(-1.,0.,0.));
#446 = ORIENTED_EDGE('',*,*,#447,.T.);
#447 = EDGE_CURVE('',#440,#448,#450,.T.);
#448 = VERTEX_POINT('',#449);
#449 = CARTESIAN_POINT('',(0.9909478,4.621321,0.5));
#450 = LINE('',#451,#452);
#451 = CARTESIAN_POINT('',(0.9909478,3.5606605,0.5));
#452 = VECTOR('',#453,1.);
#453 = DIRECTION('',(0.,1.,0.));
#454 = ORIENTED_EDGE('',*,*,#455,.T.);
#455 = EDGE_CURVE('',#448,#430,#456,.T.);
#456 = LINE('',#457,#458);
#457 = CARTESIAN_POINT('',(2.5454739,4.621321,0.5));
#458 = VECTOR('',#459,1.);
#459 = DIRECTION('',(1.,0.,0.));
#460 = PLANE('',#461);
#461 = AXIS2_PLACEMENT_3D('',#462,#463,#464);
#462 = CARTESIAN_POINT('',(2.,2.5,0.5));
#463 = DIRECTION('',(0.,0.,1.));
#464 = DIRECTION('',(1.,0.,0.));
#465 = ADVANCED_FACE('',(#466),#472,.F.);
#466 = FACE_BOUND('',#467,.F.);
#467 = EDGE_LOOP('',(#468,#469,#470,#471));
#468 = ORIENTED_EDGE('',*,*,#101,.T.);
#469 = ORIENTED_EDGE('',*,*,#298,.T.);
#470 = ORIENTED_EDGE('',*,*,#61,.F.);
#471 = ORIENTED_EDGE('',*,*,#125,.F.);
#472 = PLANE('',#473);
#473 = AXIS2_PLACEMENT_3D('',#474,#475,#476);
#474 = CARTESIAN_POINT('',(4.,5.,0.));
#475 = DIRECTION('',(0.,-1.,0.));
#476 = DIRECTION('',(-1.,0.,0.));
#477 = ADVANCED_FACE('',(#478),#494,.T.);
#478 = FACE_BOUND('',#479,.T.);
#479 = EDGE_LOOP('',(#480,#486,#487,#493));
#480 = ORIENTED_EDGE('',*,*,#481,.T.);
#481 = EDGE_CURVE('',#308,#135,#482,.T.);
#482 = LINE('',#483,#484);
#483 = CARTESIAN_POINT('',(1.194921063,2.1197755,-3.));
#484 = VECTOR('',#485,1.);
#485 = DIRECTION('',(0.,0.,-1.));
#486 = ORIENTED_EDGE('',*,*,#134,.T.);
#487 = ORIENTED_EDGE('',*,*,#488,.T.);
#488 = EDGE_CURVE('',#137,#310,#489,.T.);
#489 = LINE('',#490,#491);
#490 = CARTESIAN_POINT('',(1.194921063,0.433796600098,-4.5));
#491 = VECTOR('',#492,1.);
#492 = DIRECTION('',(0.,0.,1.));
#493 = ORIENTED_EDGE('',*,*,#307,.F.);
#494 = PLANE('',#495);
#495 = AXIS2_PLACEMENT_3D('',#496,#497,#498);
#496 = CARTESIAN_POINT('',(1.194921063,0.433796600098,-4.5));
#497 = DIRECTION('',(-1.,0.,0.));
#498 = DIRECTION('',(0.,1.,0.));
#499 = ADVANCED_FACE('',(#500),#511,.T.);
#500 = FACE_BOUND('',#501,.T.);
#501 = EDGE_LOOP('',(#502,#508,#509,#510));
#502 = ORIENTED_EDGE('',*,*,#503,.F.);
#503 = EDGE_CURVE('',#241,#414,#504,.T.);
#504 = LINE('',#505,#506);
#505 = CARTESIAN_POINT('',(1.296981737469,2.1197755,-3.));
#506 = VECTOR('',#507,1.);
#507 = DIRECTION('',(0.,0.,1.));
#508 = ORIENTED_EDGE('',*,*,#248,.T.);
#509 = ORIENTED_EDGE('',*,*,#481,.F.);
#510 = ORIENTED_EDGE('',*,*,#421,.F.);
#511 = PLANE('',#512);
#512 = AXIS2_PLACEMENT_3D('',#513,#514,#515);
#513 = CARTESIAN_POINT('',(1.1883422,2.1197755,-1.5));
#514 = DIRECTION('',(0.,1.,0.));
#515 = DIRECTION('',(1.,0.,0.));
#516 = ADVANCED_FACE('',(#517),#528,.T.);
#517 = FACE_BOUND('',#518,.T.);
#518 = EDGE_LOOP('',(#519,#525,#526,#527));
#519 = ORIENTED_EDGE('',*,*,#520,.F.);
#520 = EDGE_CURVE('',#233,#406,#521,.T.);
#521 = LINE('',#522,#523);
#522 = CARTESIAN_POINT('',(1.33827845,2.07847876,-4.5));
#523 = VECTOR('',#524,1.);
#524 = DIRECTION('',(0.,0.,1.));
#525 = ORIENTED_EDGE('',*,*,#240,.T.);
#526 = ORIENTED_EDGE('',*,*,#503,.T.);
#527 = ORIENTED_EDGE('',*,*,#413,.F.);
#528 = PLANE('',#529);
#529 = AXIS2_PLACEMENT_3D('',#530,#531,#532);
#530 = CARTESIAN_POINT('',(1.196857544067,2.21989976,-4.5));
#531 = DIRECTION('',(0.707107016355,0.707106546018,0.));
#532 = DIRECTION('',(0.707106546018,-0.707107016355,0.));
#533 = ADVANCED_FACE('',(#534),#545,.T.);
#534 = FACE_BOUND('',#535,.T.);
#535 = EDGE_LOOP('',(#536,#537,#538,#539));
#536 = ORIENTED_EDGE('',*,*,#232,.T.);
#537 = ORIENTED_EDGE('',*,*,#520,.T.);
#538 = ORIENTED_EDGE('',*,*,#405,.F.);
#539 = ORIENTED_EDGE('',*,*,#540,.F.);
#540 = EDGE_CURVE('',#225,#398,#541,.T.);
#541 = LINE('',#542,#543);
#542 = CARTESIAN_POINT('',(1.338702092265,2.078902402094,-4.5));
#543 = VECTOR('',#544,1.);
#544 = DIRECTION('',(0.,0.,1.));
#545 = PLANE('',#546);
#546 = AXIS2_PLACEMENT_3D('',#547,#548,#549);
#547 = CARTESIAN_POINT('',(1.33827845,2.07847876,-4.5));
#548 = DIRECTION('',(-0.707106638692,0.707106923681,0.));
#549 = DIRECTION('',(0.707106923681,0.707106638692,0.));
#550 = ADVANCED_FACE('',(#551),#562,.T.);
#551 = FACE_BOUND('',#552,.T.);
#552 = EDGE_LOOP('',(#553,#554,#555,#556));
#553 = ORIENTED_EDGE('',*,*,#224,.T.);
#554 = ORIENTED_EDGE('',*,*,#540,.T.);
#555 = ORIENTED_EDGE('',*,*,#397,.F.);
#556 = ORIENTED_EDGE('',*,*,#557,.F.);
#557 = EDGE_CURVE('',#217,#390,#558,.T.);
#558 = LINE('',#559,#560);
#559 = CARTESIAN_POINT('',(2.9654564,0.45214875,-4.5));
#560 = VECTOR('',#561,1.);
#561 = DIRECTION('',(0.,0.,1.));
#562 = PLANE('',#563);
#563 = AXIS2_PLACEMENT_3D('',#564,#565,#566);
#564 = CARTESIAN_POINT('',(1.197689090796,2.219915346729,-4.5));
#565 = DIRECTION('',(0.707106638692,0.707106923681,0.));
#566 = DIRECTION('',(0.707106923681,-0.707106638692,0.));
#567 = ADVANCED_FACE('',(#568),#579,.T.);
#568 = FACE_BOUND('',#569,.T.);
#569 = EDGE_LOOP('',(#570,#571,#572,#573));
#570 = ORIENTED_EDGE('',*,*,#216,.T.);
#571 = ORIENTED_EDGE('',*,*,#557,.T.);
#572 = ORIENTED_EDGE('',*,*,#389,.F.);
#573 = ORIENTED_EDGE('',*,*,#574,.F.);
#574 = EDGE_CURVE('',#209,#382,#575,.T.);
#575 = LINE('',#576,#577);
#576 = CARTESIAN_POINT('',(3.1068774,0.59356975,-4.5));
#577 = VECTOR('',#578,1.);
#578 = DIRECTION('',(0.,0.,1.));
#579 = PLANE('',#580);
#580 = AXIS2_PLACEMENT_3D('',#581,#582,#583);
#581 = CARTESIAN_POINT('',(2.9654564,0.45214875,-4.5));
#582 = DIRECTION('',(-0.707106781186,0.707106781187,0.));
#583 = DIRECTION('',(0.707106781187,0.707106781186,0.));
#584 = ADVANCED_FACE('',(#585),#596,.T.);
#585 = FACE_BOUND('',#586,.T.);
#586 = EDGE_LOOP('',(#587,#588,#589,#590));
#587 = ORIENTED_EDGE('',*,*,#208,.T.);
#588 = ORIENTED_EDGE('',*,*,#574,.T.);
#589 = ORIENTED_EDGE('',*,*,#381,.F.);
#590 = ORIENTED_EDGE('',*,*,#591,.T.);
#591 = EDGE_CURVE('',#374,#201,#592,.T.);
#592 = LINE('',#593,#594);
#593 = CARTESIAN_POINT('',(1.480123448584,2.220323701416,-4.5));
#594 = VECTOR('',#595,1.);
#595 = DIRECTION('',(0.,0.,-1.));
#596 = PLANE('',#597);
#597 = AXIS2_PLACEMENT_3D('',#598,#599,#600);
#598 = CARTESIAN_POINT('',(3.1068774,0.59356975,-4.5));
#599 = DIRECTION('',(-0.707106781187,-0.707106781187,0.));
#600 = DIRECTION('',(-0.707106781187,0.707106781187,0.));
#601 = ADVANCED_FACE('',(#602),#613,.T.);
#602 = FACE_BOUND('',#603,.T.);
#603 = EDGE_LOOP('',(#604,#605,#606,#607));
#604 = ORIENTED_EDGE('',*,*,#200,.T.);
#605 = ORIENTED_EDGE('',*,*,#591,.F.);
#606 = ORIENTED_EDGE('',*,*,#373,.F.);
#607 = ORIENTED_EDGE('',*,*,#608,.F.);
#608 = EDGE_CURVE('',#193,#366,#609,.T.);
#609 = LINE('',#610,#611);
#610 = CARTESIAN_POINT('',(3.10604545,3.846245047526,-4.5));
#611 = VECTOR('',#612,1.);
#612 = DIRECTION('',(0.,0.,1.));
#613 = PLANE('',#614);
#614 = AXIS2_PLACEMENT_3D('',#615,#616,#617);
#615 = CARTESIAN_POINT('',(1.33827845,2.07847876,-4.5));
#616 = DIRECTION('',(-0.707106638692,0.707106923681,0.));
#617 = DIRECTION('',(0.707106923681,0.707106638692,0.));
#618 = ADVANCED_FACE('',(#619),#630,.T.);
#619 = FACE_BOUND('',#620,.T.);
#620 = EDGE_LOOP('',(#621,#622,#623,#624));
#621 = ORIENTED_EDGE('',*,*,#192,.T.);
#622 = ORIENTED_EDGE('',*,*,#608,.T.);
#623 = ORIENTED_EDGE('',*,*,#365,.F.);
#624 = ORIENTED_EDGE('',*,*,#625,.F.);
#625 = EDGE_CURVE('',#185,#358,#626,.T.);
#626 = LINE('',#627,#628);
#627 = CARTESIAN_POINT('',(2.96462445,3.98766676,-4.5));
#628 = VECTOR('',#629,1.);
#629 = DIRECTION('',(0.,0.,1.));
#630 = PLANE('',#631);
#631 = AXIS2_PLACEMENT_3D('',#632,#633,#634);
#632 = CARTESIAN_POINT('',(3.10604545,3.846245047526,-4.5));
#633 = DIRECTION('',(-0.707108562371,-0.707104999998,0.));
#634 = DIRECTION('',(-0.707104999998,0.707108562371,0.));
#635 = ADVANCED_FACE('',(#636),#647,.T.);
#636 = FACE_BOUND('',#637,.T.);
#637 = EDGE_LOOP('',(#638,#644,#645,#646));
#638 = ORIENTED_EDGE('',*,*,#639,.T.);
#639 = EDGE_CURVE('',#350,#177,#640,.T.);
#640 = LINE('',#641,#642);
#641 = CARTESIAN_POINT('',(1.296733278753,2.3197755,-3.));
#642 = VECTOR('',#643,1.);
#643 = DIRECTION('',(0.,0.,-1.));
#644 = ORIENTED_EDGE('',*,*,#184,.T.);
#645 = ORIENTED_EDGE('',*,*,#625,.T.);
#646 = ORIENTED_EDGE('',*,*,#357,.F.);
#647 = PLANE('',#648);
#648 = AXIS2_PLACEMENT_3D('',#649,#650,#651);
#649 = CARTESIAN_POINT('',(2.96462445,3.98766676,-4.5));
#650 = DIRECTION('',(0.7071068,-0.707106762373,0.));
#651 = DIRECTION('',(-0.707106762373,-0.7071068,0.));
#652 = ADVANCED_FACE('',(#653),#664,.T.);
#653 = FACE_BOUND('',#654,.T.);
#654 = EDGE_LOOP('',(#655,#661,#662,#663));
#655 = ORIENTED_EDGE('',*,*,#656,.F.);
#656 = EDGE_CURVE('',#169,#342,#657,.T.);
#657 = LINE('',#658,#659);
#658 = CARTESIAN_POINT('',(1.194921063,2.3197755,-3.));
#659 = VECTOR('',#660,1.);
#660 = DIRECTION('',(0.,0.,1.));
#661 = ORIENTED_EDGE('',*,*,#176,.T.);
#662 = ORIENTED_EDGE('',*,*,#639,.F.);
#663 = ORIENTED_EDGE('',*,*,#349,.F.);
#664 = PLANE('',#665);
#665 = AXIS2_PLACEMENT_3D('',#666,#667,#668);
#666 = CARTESIAN_POINT('',(1.3883422,2.3197755,-1.5));
#667 = DIRECTION('',(0.,-1.,0.));
#668 = DIRECTION('',(-1.,0.,0.));
#669 = ADVANCED_FACE('',(#670),#681,.T.);
#670 = FACE_BOUND('',#671,.T.);
#671 = EDGE_LOOP('',(#672,#678,#679,#680));
#672 = ORIENTED_EDGE('',*,*,#673,.F.);
#673 = EDGE_CURVE('',#161,#334,#674,.T.);
#674 = LINE('',#675,#676);
#675 = CARTESIAN_POINT('',(1.194921063,4.083796600098,-4.5));
#676 = VECTOR('',#677,1.);
#677 = DIRECTION('',(0.,0.,1.));
#678 = ORIENTED_EDGE('',*,*,#168,.T.);
#679 = ORIENTED_EDGE('',*,*,#656,.T.);
#680 = ORIENTED_EDGE('',*,*,#341,.F.);
#681 = PLANE('',#682);
#682 = AXIS2_PLACEMENT_3D('',#683,#684,#685);
#683 = CARTESIAN_POINT('',(1.194921063,0.433796600098,-4.5));
#684 = DIRECTION('',(-1.,0.,0.));
#685 = DIRECTION('',(0.,1.,0.));
#686 = ADVANCED_FACE('',(#687),#698,.T.);
#687 = FACE_BOUND('',#688,.T.);
#688 = EDGE_LOOP('',(#689,#690,#691,#692));
#689 = ORIENTED_EDGE('',*,*,#160,.T.);
#690 = ORIENTED_EDGE('',*,*,#673,.T.);
#691 = ORIENTED_EDGE('',*,*,#333,.F.);
#692 = ORIENTED_EDGE('',*,*,#693,.F.);
#693 = EDGE_CURVE('',#153,#326,#694,.T.);
#694 = LINE('',#695,#696);
#695 = CARTESIAN_POINT('',(0.994921063,4.083796600098,-4.5));
#696 = VECTOR('',#697,1.);
#697 = DIRECTION('',(0.,0.,1.));
#698 = PLANE('',#699);
#699 = AXIS2_PLACEMENT_3D('',#700,#701,#702);
#700 = CARTESIAN_POINT('',(1.194921063,4.083796600098,-4.5));
#701 = DIRECTION('',(0.,-1.,0.));
#702 = DIRECTION('',(-1.,0.,0.));
#703 = ADVANCED_FACE('',(#704),#715,.T.);
#704 = FACE_BOUND('',#705,.T.);
#705 = EDGE_LOOP('',(#706,#707,#708,#709));
#706 = ORIENTED_EDGE('',*,*,#152,.T.);
#707 = ORIENTED_EDGE('',*,*,#693,.T.);
#708 = ORIENTED_EDGE('',*,*,#325,.F.);
#709 = ORIENTED_EDGE('',*,*,#710,.F.);
#710 = EDGE_CURVE('',#145,#318,#711,.T.);
#711 = LINE('',#712,#713);
#712 = CARTESIAN_POINT('',(0.994921063,0.433796600098,-4.5));
#713 = VECTOR('',#714,1.);
#714 = DIRECTION('',(0.,0.,1.));
#715 = PLANE('',#716);
#716 = AXIS2_PLACEMENT_3D('',#717,#718,#719);
#717 = CARTESIAN_POINT('',(0.994921063,4.083796600098,-4.5));
#718 = DIRECTION('',(1.,0.,0.));
#719 = DIRECTION('',(0.,-1.,0.));
#720 = ADVANCED_FACE('',(#721),#727,.T.);
#721 = FACE_BOUND('',#722,.T.);
#722 = EDGE_LOOP('',(#723,#724,#725,#726));
#723 = ORIENTED_EDGE('',*,*,#144,.T.);
#724 = ORIENTED_EDGE('',*,*,#710,.T.);
#725 = ORIENTED_EDGE('',*,*,#317,.F.);
#726 = ORIENTED_EDGE('',*,*,#488,.F.);
#727 = PLANE('',#728);
#728 = AXIS2_PLACEMENT_3D('',#729,#730,#731);
#729 = CARTESIAN_POINT('',(0.994921063,0.433796600098,-4.5));
#730 = DIRECTION('',(0.,1.,0.));
#731 = DIRECTION('',(1.,0.,0.));
#732 = ADVANCED_FACE('',(#733),#749,.T.);
#733 = FACE_BOUND('',#734,.T.);
#734 = EDGE_LOOP('',(#735,#736,#742,#743));
#735 = ORIENTED_EDGE('',*,*,#256,.T.);
#736 = ORIENTED_EDGE('',*,*,#737,.T.);
#737 = EDGE_CURVE('',#259,#432,#738,.T.);
#738 = LINE('',#739,#740);
#739 = CARTESIAN_POINT('',(3.0909478,4.421321,-4.5));
#740 = VECTOR('',#741,1.);
#741 = DIRECTION('',(0.,0.,1.));
#742 = ORIENTED_EDGE('',*,*,#429,.F.);
#743 = ORIENTED_EDGE('',*,*,#744,.F.);
#744 = EDGE_CURVE('',#257,#430,#745,.T.);
#745 = LINE('',#746,#747);
#746 = CARTESIAN_POINT('',(3.0909478,4.621321,-4.5));
#747 = VECTOR('',#748,1.);
#748 = DIRECTION('',(0.,0.,1.));
#749 = PLANE('',#750);
#750 = AXIS2_PLACEMENT_3D('',#751,#752,#753);
#751 = CARTESIAN_POINT('',(3.0909478,4.421321,-4.5));
#752 = DIRECTION('',(-1.,0.,0.));
#753 = DIRECTION('',(0.,1.,0.));
#754 = ADVANCED_FACE('',(#755),#766,.T.);
#755 = FACE_BOUND('',#756,.T.);
#756 = EDGE_LOOP('',(#757,#758,#759,#760));
#757 = ORIENTED_EDGE('',*,*,#282,.T.);
#758 = ORIENTED_EDGE('',*,*,#744,.T.);
#759 = ORIENTED_EDGE('',*,*,#455,.F.);
#760 = ORIENTED_EDGE('',*,*,#761,.F.);
#761 = EDGE_CURVE('',#275,#448,#762,.T.);
#762 = LINE('',#763,#764);
#763 = CARTESIAN_POINT('',(0.9909478,4.621321,-4.5));
#764 = VECTOR('',#765,1.);
#765 = DIRECTION('',(0.,0.,1.));
#766 = PLANE('',#767);
#767 = AXIS2_PLACEMENT_3D('',#768,#769,#770);
#768 = CARTESIAN_POINT('',(3.0909478,4.621321,-4.5));
#769 = DIRECTION('',(0.,-1.,0.));
#770 = DIRECTION('',(-1.,0.,0.));
#771 = ADVANCED_FACE('',(#772),#783,.T.);
#772 = FACE_BOUND('',#773,.T.);
#773 = EDGE_LOOP('',(#774,#775,#781,#782));
#774 = ORIENTED_EDGE('',*,*,#266,.T.);
#775 = ORIENTED_EDGE('',*,*,#776,.T.);
#776 = EDGE_CURVE('',#267,#440,#777,.T.);
#777 = LINE('',#778,#779);
#778 = CARTESIAN_POINT('',(0.9909478,4.421321,-4.5));
#779 = VECTOR('',#780,1.);
#780 = DIRECTION('',(0.,0.,1.));
#781 = ORIENTED_EDGE('',*,*,#439,.F.);
#782 = ORIENTED_EDGE('',*,*,#737,.F.);
#783 = PLANE('',#784);
#784 = AXIS2_PLACEMENT_3D('',#785,#786,#787);
#785 = CARTESIAN_POINT('',(0.9909478,4.421321,-4.5));
#786 = DIRECTION('',(0.,1.,0.));
#787 = DIRECTION('',(1.,0.,0.));
#788 = ADVANCED_FACE('',(#789),#795,.T.);
#789 = FACE_BOUND('',#790,.T.);
#790 = EDGE_LOOP('',(#791,#792,#793,#794));
#791 = ORIENTED_EDGE('',*,*,#274,.T.);
#792 = ORIENTED_EDGE('',*,*,#761,.T.);
#793 = ORIENTED_EDGE('',*,*,#447,.F.);
#794 = ORIENTED_EDGE('',*,*,#776,.F.);
#795 = PLANE('',#796);
#796 = AXIS2_PLACEMENT_3D('',#797,#798,#799);
#797 = CARTESIAN_POINT('',(0.9909478,4.621321,-4.5));
#798 = DIRECTION('',(1.,0.,0.));
#799 = DIRECTION('',(0.,-1.,0.));
#800 = ( GEOMETRIC_REPRESENTATION_CONTEXT(3) 
GLOBAL_UNCERTAINTY_ASSIGNED_CONTEXT((#804)) GLOBAL_UNIT_ASSIGNED_CONTEXT
((#801,#802,#803)) REPRESENTATION_CONTEXT('Context #1',
  '3D Context with UNIT and UNCERTAINTY') );
#801 = ( LENGTH_UNIT() NAMED_UNIT(*) SI_UNIT(.MILLI.,.METRE.) );
#802 = ( NAMED_UNIT(*) PLANE_ANGLE_UNIT() SI_UNIT($,.RADIAN.) );
#803 = ( NAMED_UNIT(*) SI_UNIT($,.STERADIAN.) SOLID_ANGLE_UNIT() );
#804 = UNCERTAINTY_MEASURE_WITH_UNIT(LENGTH_MEASURE(5.E-06),#801,
  'distance_accuracy_value','confusion accuracy');
#805 = PRODUCT_RELATED_PRODUCT_CATEGORY('part',$,(#7));
#806 = MECHANICAL_DESIGN_GEOMETRIC_PRESENTATION_REPRESENTATION('',(#807)
  ,#800);
#807 = STYLED_ITEM('color',(#808),#15);
#808 = PRESENTATION_STYLE_ASSIGNMENT((#809,#815));
#809 = SURFACE_STYLE_USAGE(.BOTH.,#810);
#810 = SURFACE_SIDE_STYLE('',(#811));
#811 = SURFACE_STYLE_FILL_AREA(#812);
#812 = FILL_AREA_STYLE('',(#813));
#813 = FILL_AREA_STYLE_COLOUR('',#814);
#814 = COLOUR_RGB('',0.447058818107,0.474509808674,0.501960817233);
#815 = CURVE_STYLE('',#816,POSITIVE_LENGTH_MEASURE(0.1),#817);
#816 = DRAUGHTING_PRE_DEFINED_CURVE_FONT('continuous');
#817 = COLOUR_RGB('',9.803921802644E-02,9.803921802644E-02,
  9.803921802644E-02);
ENDSEC;
END-ISO-10303-21;
